<svg fill="#000000" xmlns="http://www.w3.org/2000/svg" viewBox="0 0 64 64" width="64px" height="64px"><path d="M 30.921875 1.992188 C 26.238281 2 21.65625 3.136719 17.511719 5.328125 C 17.507813 5.328125 17.507813 5.328125 17.503906 5.328125 C 16.308594 5.964844 15.144531 6.679688 14.027344 7.484375 C 13.660156 7.753906 13.300781 8.027344 12.945313 8.308594 L 12.933594 8.316406 C 7.265625 12.820313 3.53125 19.183594 2.371094 26.375 C 1.136719 34.023438 2.953125 41.695313 7.484375 47.972656 C 7.9375 48.597656 8.414063 49.195313 8.90625 49.773438 C 8.917969 49.789063 8.929688 49.804688 8.945313 49.820313 C 13.402344 55.0625 19.507813 58.519531 26.375 59.628906 C 27.941406 59.882813 29.503906 60.007813 31.0625 60.007813 C 37.101563 60.007813 42.976563 58.121094 47.972656 54.515625 C 54.253906 49.980469 58.394531 43.273438 59.628906 35.625 C 60.863281 27.976563 59.046875 20.304688 54.515625 14.027344 C 49.980469 7.746094 43.269531 3.605469 35.625 2.371094 C 34.050781 2.117188 32.480469 1.992188 30.921875 1.992188 Z M 30.941406 3.992188 C 32.386719 3.992188 33.847656 4.109375 35.304688 4.34375 C 37.347656 4.675781 39.316406 5.234375 41.1875 5.992188 C 37.613281 7.175781 34.195313 8.816406 31 10.90625 C 27.804688 8.816406 24.386719 7.175781 20.808594 5.992188 C 24.019531 4.675781 27.449219 3.992188 30.941406 3.992188 Z M 43.890625 7.261719 C 44.859375 7.789063 45.792969 8.375 46.6875 9.015625 C 43.167969 11.148438 39.707031 13.535156 36.394531 16.167969 C 36.167969 16.347656 36.03125 16.617188 36.019531 16.90625 C 36.007813 17.195313 36.121094 17.476563 36.332031 17.675781 C 46.078125 26.902344 51.164063 39.3125 53.386719 46.113281 C 53.082031 46.558594 52.773438 46.996094 52.445313 47.421875 C 49.03125 41.515625 42.226563 31.183594 31.683594 21.390625 C 31.296875 21.035156 30.703125 21.035156 30.320313 21.390625 C 19.808594 31.152344 13.015625 41.433594 9.5625 47.40625 C 9.410156 47.203125 9.253906 47.007813 9.109375 46.800781 C 8.9375 46.570313 8.78125 46.332031 8.625 46.09375 C 10.859375 39.246094 15.945313 26.882813 25.671875 17.675781 C 25.882813 17.476563 25.996094 17.195313 25.984375 16.90625 C 25.96875 16.617188 25.832031 16.347656 25.605469 16.167969 C 22.300781 13.542969 18.847656 11.152344 15.324219 9.023438 C 16.234375 8.375 17.179688 7.796875 18.148438 7.273438 C 22.507813 8.46875 26.640625 10.371094 30.441406 12.9375 C 30.609375 13.050781 30.804688 13.109375 31 13.109375 C 31.199219 13.109375 31.390625 13.050781 31.5625 12.9375 C 35.371094 10.363281 39.519531 8.457031 43.890625 7.261719 Z M 48.378906 10.328125 C 50.058594 11.742188 51.574219 13.371094 52.890625 15.199219 C 57.113281 21.042969 58.804688 28.1875 57.65625 35.308594 C 57.160156 38.359375 56.167969 41.246094 54.738281 43.886719 C 52.292969 36.886719 47.347656 25.757813 38.535156 17.03125 C 41.710938 14.5625 45.019531 12.320313 48.378906 10.328125 Z M 13.632813 10.339844 C 16.992188 12.332031 20.292969 14.570313 23.464844 17.03125 C 14.667969 25.742188 9.722656 36.839844 7.265625 43.867188 C 4.421875 38.644531 3.382813 32.664063 4.34375 26.695313 C 5.390625 20.234375 8.664063 14.5 13.632813 10.339844 Z M 31 23.492188 C 41.363281 33.292969 47.929688 43.507813 51.078125 49.058594 C 49.804688 50.464844 48.378906 51.753906 46.800781 52.890625 C 40.957031 57.113281 33.816406 58.804688 26.695313 57.65625 C 20.535156 56.660156 15.035156 53.636719 10.925781 49.054688 C 14.117188 43.433594 20.671875 33.261719 31 23.492188 Z M 21.363281 47.230469 C 20.980469 47.175781 20.582031 47.351563 20.371094 47.707031 L 19.347656 49.429688 C 19.066406 49.90625 19.222656 50.519531 19.699219 50.796875 C 19.855469 50.894531 20.03125 50.9375 20.207031 50.9375 C 20.546875 50.9375 20.882813 50.765625 21.066406 50.453125 L 22.089844 48.730469 C 22.371094 48.253906 22.214844 47.640625 21.738281 47.359375 C 21.621094 47.289063 21.492188 47.246094 21.363281 47.230469 Z M 40.617188 47.480469 C 40.488281 47.492188 40.359375 47.53125 40.238281 47.597656 C 39.757813 47.871094 39.585938 48.480469 39.855469 48.960938 L 40.832031 50.703125 C 41.015625 51.03125 41.355469 51.21875 41.707031 51.21875 C 41.871094 51.21875 42.039063 51.175781 42.195313 51.089844 C 42.675781 50.816406 42.847656 50.207031 42.578125 49.726563 L 41.597656 47.984375 C 41.398438 47.621094 41.003906 47.433594 40.617188 47.480469 Z M 25.78125 49.238281 C 25.398438 49.289063 25.058594 49.558594 24.945313 49.957031 L 24.402344 51.882813 C 24.253906 52.414063 24.5625 52.964844 25.09375 53.113281 C 25.183594 53.140625 25.277344 53.152344 25.363281 53.152344 C 25.800781 53.152344 26.203125 52.863281 26.328125 52.421875 L 26.871094 50.5 C 27.019531 49.96875 26.710938 49.414063 26.179688 49.265625 C 26.046875 49.230469 25.910156 49.222656 25.78125 49.238281 Z M 36.152344 49.371094 C 36.023438 49.351563 35.890625 49.355469 35.753906 49.390625 C 35.222656 49.527344 34.894531 50.070313 35.03125 50.605469 L 35.523438 52.542969 C 35.636719 52.996094 36.046875 53.296875 36.492188 53.296875 C 36.574219 53.296875 36.65625 53.289063 36.738281 53.265625 C 37.273438 53.128906 37.597656 52.585938 37.464844 52.050781 L 36.96875 50.113281 C 36.867188 49.710938 36.535156 49.429688 36.152344 49.371094 Z M 30.945313 49.957031 C 30.398438 49.957031 29.953125 50.398438 29.945313 50.945313 L 29.921875 52.945313 C 29.914063 53.496094 30.355469 53.949219 30.90625 53.957031 L 30.921875 53.957031 C 31.46875 53.957031 31.914063 53.519531 31.921875 52.96875 L 31.945313 50.96875 C 31.953125 50.417969 31.507813 49.964844 30.957031 49.957031 Z"/></svg>